<svg xmlns="http://www.w3.org/2000/svg" viewBox="0 0 800 1000" role="img" aria-labelledby="heroPlaceholderTitle">
  <title id="heroPlaceholderTitle">Placeholder hero image — replace with a photo</title>
  <defs>
    <linearGradient id="heroBg" x1="0%" y1="0%" x2="100%" y2="100%">
      <stop offset="0%" stop-color="#ddbea9" />
      <stop offset="100%" stop-color="#b7b7a4" />
    </linearGradient>
  </defs>
  <rect width="800" height="1000" fill="url(#heroBg)" />
  <circle cx="600" cy="220" r="260" fill="#ffe8d6" opacity="0.55" />
  <circle cx="180" cy="760" r="300" fill="#a5a58d" opacity="0.45" />
  <path
    d="M400 300c60 0 120 50 120 130 0 70-50 110-50 180 0 60 40 90 40 150 0 70-50 120-110 120s-110-50-110-120c0-60 40-90 40-150 0-70-50-110-50-180 0-80 60-130 120-130z"
    fill="#6b705c"
    opacity="0.85"
  />
  <text
    x="400"
    y="960"
    text-anchor="middle"
    font-family="sans-serif"
    font-size="22"
    fill="#3a3a30"
    opacity="0.55"
  >
    Replace with a photo
  </text>
</svg>
